<?xml version="1.0" encoding="utf-8"?>

<!DOCTYPE svg PUBLIC "-//W3C//DTD SVG 1.1//EN" "http://www.w3.org/Graphics/SVG/1.1/DTD/svg11.dtd">
<svg version="1.1" id="Layer_1" xmlns="http://www.w3.org/2000/svg" xmlns:xlink="http://www.w3.org/1999/xlink" x="0px" y="0px"
	 viewBox="0 0 1728.098 1624.684" enable-background="new 0 0 1728.098 1624.684" xml:space="preserve">
<g>
	<path fill="#1C365B" stroke="#1C365B" stroke-width="0.5" d="M849.889,12.349c1.041,0.666,812.517,519.878,817.998,524.311
		c-17.872,0.157-35.76,0.267-53.601-0.031c-1.003-0.648-746.54-482.11-764.287-493.109
		C839.866,49.996,98.395,529.861,89.972,536.738c-24.977,0.031-49.954,0.141-74.931-0.063
		C83.274,493.483,756.241,71.025,849.889,12.349z"/>
	<path fill="#6580A4" stroke="#6580A4" stroke-width="0.5" d="M849.999,43.519c17.791,11.026,763.274,492.455,764.287,493.109
		c-21.178,0.733-58.589-0.119-59.699-0.126c-10.052-7.183-689.323-436.9-704.871-446.205
		c-11.638,6.35-696.19,441.507-702.702,446.268c-8.597,0.653-51.107,0.228-57.043,0.173
		C98.245,529.984,837.743,51.353,849.999,43.519z"/>
	<path fill="#7FA2CA" stroke="#7FA2CA" stroke-width="0.5" d="M800.203,121.106c16.583-10.139,32.459-21.503,49.514-30.809
		c12.398,7.42,693.525,438.097,704.871,446.205c-219.127,0.206-1320.82,0.144-1407.573,0.063
		C155.165,530.606,104.738,563.064,800.203,121.106 M856.24,155.121c-0.189,8.85,0.126,17.715-0.141,26.564
		c-69.898,6.075-77.922,66.921-57.515,96.953c13.597,18.485,36.672,25.496,57.593,32.113c0.031,35.791,0.031,71.583,0,107.374
		c-13.487-0.833-26.454-6.916-36.153-16.237c-9.305-8.692-14.681-20.623-17.495-32.868c-6.35-0.252-12.701-0.252-19.051-0.094
		c2.495,35.755,30.612,64.774,72.479,66.616c0.566,11.805,0.016,23.609,0.299,35.43c5.832,0.141,11.695,0.141,17.542,0.016
		c0.534-11.82,0.079-23.641,0.157-35.461c19.224-1.273,39.344-6.759,53.333-20.701c22.605-21.841,24.022-68.504,1.729-90.476
		c-14.823-14.964-35.163-22.541-54.937-28.466c-0.173-32.129,0.031-64.273-0.094-96.418c23.05,3.869,38.078,14.099,45.647,40.224
		c6.649,0.582,13.329,0.503,19.994,0.157c-2.169-19.538-13.659-38.008-31.076-47.455c-10.547-6.303-22.745-8.268-34.581-10.642
		c-0.063-8.881,0.283-17.762-0.157-26.643C867.95,154.948,862.087,154.948,856.24,155.121z"/>
	<path fill="#1C365B" stroke="#1C365B" stroke-width="0.5" d="M856.24,155.121c5.847-0.173,11.71-0.173,17.573-0.016
		c0.44,8.881,0.094,17.762,0.157,26.643c11.836,2.374,24.034,4.338,34.581,10.642c17.416,9.447,28.907,27.916,31.076,47.455
		c-6.665,0.346-13.345,0.424-19.994-0.157c-7.542-26.033-22.542-36.345-45.647-40.224c0.126,32.145-0.079,64.289,0.094,96.418
		c19.774,5.926,40.114,13.502,54.937,28.466c22.296,21.975,20.874,68.638-1.729,90.476c-13.99,13.942-34.109,19.428-53.333,20.701
		c-0.079,11.82,0.377,23.641-0.157,35.461c-5.847,0.126-11.71,0.126-17.542-0.016c-0.283-11.82,0.267-23.625-0.299-35.43
		c-41.675-1.833-69.971-30.69-72.479-66.616c6.35-0.157,12.701-0.157,19.051,0.094c2.814,12.245,8.189,24.175,17.495,32.868
		c9.698,9.321,22.666,15.404,36.153,16.237c0.031-35.791,0.031-71.583,0-107.374c-20.922-6.618-43.996-13.628-57.593-32.113
		c-20.369-29.975-12.456-90.871,57.515-96.953C856.365,172.836,856.051,163.971,856.24,155.121 M816.66,217.728
		c-9.588,14.854-10.091,35.949,0.236,50.567c9.573,12.182,24.725,18.202,39.171,22.383c0.22-30.573,0.173-61.13,0.047-91.703
		C841.291,199.762,825.29,204.823,816.66,217.728 M873.986,315.656c0.225,101.173-0.474,96.456,0.55,102.768
		c10.437-1.132,21.079-3.285,30.117-8.928c24.283-14.523,23.804-53.453,9.557-70.482
		C903.962,326.847,888.762,320.45,873.986,315.656z"/>
	<path fill="#7FA2CA" stroke="#7FA2CA" stroke-width="0.5" d="M856.114,198.976c0.126,30.573,0.173,61.13-0.047,91.703
		c-14.445-4.181-29.598-10.201-39.171-22.383C802.084,247.328,805.69,201.65,856.114,198.976z"/>
	<path fill="#7FA2CA" stroke="#7FA2CA" stroke-width="0.5" d="M873.986,315.656c36.089,11.71,55.174,28.902,48.854,66.427
		c-1.949,11.129-8.41,21.566-18.186,27.413c-9.038,5.643-19.68,7.796-30.117,8.928C873.514,412.126,874.212,416.907,873.986,315.656
		z"/>
	<path fill="#1C365B" stroke="#1C365B" stroke-width="0.5" d="M145.773,536.66c0.444-0.034,1410.575-0.133,1423.59,0.157
		c-0.456,8.897-0.283,17.809-0.126,26.722c-6.105,0.408-1418.346,0.344-1423.134,0.11
		C146.04,554.642,146.449,545.635,145.773,536.66z"/>
	<path fill="#6580A4" stroke="#6580A4" stroke-width="0.5" d="M172.133,563.869c455.353-0.141,910.722-0.11,1366.075-0.016
		c-0.283,11.475-0.094,22.965-0.157,34.455c-455.337-0.016-910.675,0.11-1366.028-0.063
		C171.945,586.786,171.772,575.327,172.133,563.869z"/>
	<path fill="#7FA2CA" stroke="#7FA2CA" stroke-width="0.5" d="M172.023,598.245c455.353,0.173,910.691,0.047,1366.028,0.063
		c0.079,11.49-0.047,22.965,0.079,34.455c-239.755,0.262-1298.568,0.152-1365.965,0C171.85,621.257,172.102,609.751,172.023,598.245
		z"/>
	<path fill="#1C365B" stroke="#1C365B" stroke-width="0.5" d="M146.119,632.921c1.001-0.06,1420.14-0.082,1423.103,0.189
		c-0.173,8.771-0.173,17.573,0.016,26.36c-8.221,0.77-16.473,0.299-24.694,0.44c-0.409,14.461,0.047,28.922-0.204,43.383
		c-7.765,0.016-15.53-0.126-23.295,0.11c-0.069,56.418-0.256,605.88,0.063,634.043c7.734,0.251,15.483,0.094,23.232,0.11
		c0.173,14.524-0.031,29.064,0.094,43.604c-67.056,0.314-134.111-0.11-201.183-0.11c-0.55-14.492-0.66-29.048,0.22-43.525
		c6.68,0.094,13.377,0.047,20.073-0.236c-0.031-211.227-0.031-422.47,0-633.697c-6.791-0.314-13.581-0.362-20.356-0.236
		c-0.833-14.445-0.141-28.922-0.251-43.383c-14.917-0.472-29.834-0.33-44.735-0.094c-0.33,14.477,0.393,28.985-0.299,43.478
		c-7.702-0.126-15.42-0.204-23.091,0.362c0.078,211.133,0.078,422.281,0,633.43c7.671,0.566,15.373,0.472,23.075,0.362
		c0.424,10.678,0.547,37.447-0.204,43.336c-66.977,0.723-134.001-0.031-200.994,0.362c0.11-14.556-0.283-29.111,0.157-43.667
		c6.743,0.079,13.502,0.016,20.246-0.157c0.142-211.29,0.142-422.611,0-633.901c-6.759-0.189-13.502-0.236-20.261-0.157
		c-0.472-14.508,0.126-29.017-0.251-43.525c-31.034-0.07-420.578-0.219-474.121,0.141c-0.22,14.461,0.519,28.954-0.283,43.415
		c-7.749-0.126-15.499-0.22-23.216,0.393c0.126,211.117,0.126,422.234,0,633.351c7.639,0.645,15.31,0.487,22.965,0.409
		c0.77,14.508,0.676,29.048,0.204,43.556c-67.103,0.189-134.221-0.094-201.34,0.142c0.141-14.556-0.236-29.111,0.189-43.651
		c6.775,0.063,13.534,0,20.309-0.173c0.23-112.977,0.212-609.572,0-633.901c-6.775-0.189-13.549-0.236-20.309-0.157
		c-0.487-14.508,0.126-29.032-0.267-43.541c-17.338-0.126-34.675-0.11-52.013,0c-0.613,14.493,0.016,29.001-0.236,43.493
		c-7.734,0-15.483-0.047-23.216,0.204c-0.235,106.779-0.234,604.084-0.016,633.901c7.749,0.236,15.499,0.204,23.232,0.189
		c0.204,14.54-0.283,29.079,0.236,43.619c-67.386-0.33-134.756,0.346-202.142-0.031c0.377-14.508,0.141-29.032,0.126-43.541
		c6.979-0.157,14.005,0.314,20.953-0.503c-0.189-211.133-0.173-422.265,0-633.382c-6.963-0.786-13.974-0.362-20.953-0.503
		c-0.031-14.445,0.33-28.907-0.141-43.352c-6.822,0.031-13.628,0.141-20.434-0.267C146.135,650.714,146.135,641.817,146.119,632.921
		 M207.469,703.796c0.126,211.086,0.11,422.187,0,633.272c6.067,0.755,12.198,0.739,18.296,0.236
		c0.11-211.243,0.079-422.501,0.016-633.744C219.682,703.057,213.536,703.041,207.469,703.796 M246.089,703.529
		c-0.458,31.367-0.31,595.322,0,633.807c13.534,0.283,27.115,0.692,40.633-0.236c-0.126-211.117-0.094-422.218,0-633.335
		C273.204,702.837,259.623,703.246,246.089,703.529 M306.512,703.827c0.126,211.054,0.11,422.124,0.016,633.178
		c6.083,0.833,12.229,0.786,18.359,0.299c0.126-211.243,0.126-422.501-0.016-633.744
		C318.757,703.057,312.595,703.041,306.512,703.827 M461.702,703.56c-0.079,211.258-0.079,422.501,0,633.76
		c6.115,0.487,12.26,0.519,18.344-0.314c-0.142-211.054-0.142-422.108,0-633.162C473.962,703.026,467.817,703.057,461.702,703.56
		 M499.804,703.749c0.126,211.133,0.126,422.25,0.016,633.367c13.518,0.88,27.099,0.503,40.648,0.22
		c0.397-30.416,0.283-596.839,0-633.807C526.919,703.23,513.338,702.853,499.804,703.749 M560.761,703.576
		c-0.063,211.243-0.063,422.486,0,633.744c6.115,0.472,12.261,0.472,18.375-0.189c-0.141-211.133-0.126-422.265-0.016-633.398
		C573.021,703.073,566.875,703.057,560.761,703.576 M1137.541,703.544c-0.186,56.062-0.179,561.289,0,633.775
		c6.115,0.487,12.292,0.519,18.391-0.346c-0.189-211.038-0.189-422.077-0.016-633.1
		C1149.817,703.026,1143.655,703.041,1137.541,703.544 M1175.627,703.654c0.126,211.18,0.11,422.375,0,633.555
		c13.534,0.676,27.115,0.456,40.648,0.126c0.253-33.203,0.429-520.64,0-633.791C1202.726,703.167,1189.145,702.978,1175.627,703.654
		 M1236.631,703.56c-0.11,211.243-0.11,422.517,0,633.76c6.099,0.487,12.26,0.487,18.359-0.236
		c-0.11-211.101-0.11-422.203,0-633.288C1248.891,703.057,1242.73,703.057,1236.631,703.56 M1383.993,703.56
		c-0.558,20.439-0.232,604.311,0,633.744c5.879,0.424,11.789,0.44,17.683,0.031c0.215-12.104,0.152-523.04,0-633.807
		C1395.782,703.104,1389.872,703.12,1383.993,703.56 M1422.079,703.529c-0.126,211.258-0.11,422.533,0,633.791
		c13.502,0.377,27.052,0.535,40.554-0.094c-0.063-211.196-0.094-422.407,0.016-633.603
		C1449.147,703.01,1435.597,703.151,1422.079,703.529 M1483.115,703.544c-0.526,28.139-0.297,599.593-0.016,633.775
		c5.879,0.424,11.789,0.424,17.683,0c0.407-20.372,0.275-532.951,0-633.775C1494.888,703.104,1488.994,703.104,1483.115,703.544z"/>
	<path fill="#7FA2CA" stroke="#7FA2CA" stroke-width="0.5" d="M368.695,659.784c17.338-0.11,34.675-0.126,52.013,0
		c0.393,14.508-0.22,29.032,0.267,43.541c6.759-0.079,13.534-0.031,20.309,0.157c0.198,22.665,0.25,511.304,0,633.901
		c-6.775,0.173-13.534,0.236-20.309,0.173c-0.424,14.54-0.047,29.095-0.189,43.651c-17.369-0.063-34.722-0.047-52.092-0.016
		c-0.519-14.54-0.031-29.079-0.236-43.619c-7.734,0.016-15.483,0.047-23.232-0.189c-0.169-23.082-0.273-502.98,0.016-633.901
		c7.734-0.251,15.483-0.204,23.216-0.204C368.711,688.785,368.082,674.276,368.695,659.784z"/>
	<path fill="#7FA2CA" stroke="#7FA2CA" stroke-width="0.5" d="M622.456,659.941c53.457-0.36,441.622-0.215,474.121-0.141
		c0.377,14.508-0.22,29.017,0.251,43.525c6.759-0.079,13.502-0.031,20.261,0.157c0.142,211.29,0.142,422.611,0,633.901
		c-6.743,0.173-13.502,0.236-20.246,0.157c-0.44,14.556-0.047,29.111-0.157,43.667c-23.452-0.252-46.92,0.33-70.372-0.299
		c0.047-198.825-0.11-397.65,0.094-596.459c4.637-0.173,9.274-0.409,13.927-0.597c0.283-7.844,0.251-15.703,0.927-23.515
		c2.814-0.063,5.627-0.11,8.457-0.157c0.424-8.268,0.456-16.552-0.047-24.82c-131.125-0.031-262.234-0.016-393.343,0
		c-0.55,8.268-0.534,16.552-0.063,24.835c2.798,0.063,5.58,0.126,8.394,0.189c0.11,7.781,0.079,15.561,0.204,23.358
		c4.967,0.283,9.934,0.519,14.917,0.676c0.364,133.737,0.173,585.954,0.11,596.57c-18.847,0.377-37.709,0.173-56.556,0.141
		c-0.802-14.54-0.236-29.095-0.094-43.619c-6.33,0-15.434,0.338-24.285-0.409c0.126-211.117,0.126-422.234,0-633.351
		c7.718-0.613,15.467-0.519,23.216-0.393C622.975,688.895,622.236,674.402,622.456,659.941z"/>
	<path fill="#7FA2CA" stroke="#7FA2CA" stroke-width="0.5" d="M1298.201,659.878c14.901-0.236,29.818-0.377,44.735,0.094
		c0.11,14.461-0.582,28.938,0.251,43.383c6.775-0.126,13.565-0.079,20.356,0.236c-0.031,211.227-0.031,422.47,0,633.697
		c-8.358,0.353-15.129,0.295-21.377,0.22c0.157,14.524,0.707,29.079-0.078,43.603c-14.037,0.063-28.073,0.299-42.11-0.126
		c-0.487-0.77-1.462-2.295-1.949-3.049c0.173-13.471,0.393-26.958-0.141-40.428c-7.702,0.11-15.404,0.204-23.075-0.362
		c0.078-211.148,0.078-422.297,0-633.43c7.671-0.566,15.388-0.487,23.091-0.362C1298.594,688.863,1297.871,674.355,1298.201,659.878
		z"/>
	<path fill="#6580A4" stroke="#6580A4" stroke-width="0.5" d="M207.469,703.796c6.067-0.755,12.213-0.739,18.312-0.236
		c0.063,211.243,0.094,422.501-0.016,633.744c-6.099,0.503-12.229,0.519-18.296-0.236
		C207.579,1125.983,207.594,914.881,207.469,703.796z"/>
	<path fill="#6580A4" stroke="#6580A4" stroke-width="0.5" d="M246.089,703.529c13.534-0.283,27.115-0.692,40.633,0.236
		c-0.094,211.117-0.126,422.218,0,633.335c-13.518,0.927-27.099,0.519-40.633,0.236
		C245.79,1300.173,245.622,735.519,246.089,703.529z"/>
	<path fill="#6580A4" stroke="#6580A4" stroke-width="0.5" d="M306.512,703.827c6.083-0.786,12.245-0.77,18.359-0.267
		c0.141,211.243,0.141,422.501,0.016,633.744c-6.13,0.487-12.276,0.534-18.359-0.299
		C306.622,1125.951,306.638,914.881,306.512,703.827z"/>
	<path fill="#6580A4" stroke="#6580A4" stroke-width="0.5" d="M461.702,703.56c6.115-0.503,12.26-0.534,18.344,0.283
		c-0.142,211.054-0.142,422.108,0,633.162c-6.083,0.833-12.229,0.802-18.344,0.314C461.623,1126.061,461.623,914.819,461.702,703.56
		z"/>
	<path fill="#6580A4" stroke="#6580A4" stroke-width="0.5" d="M499.804,703.749c13.534-0.896,27.115-0.519,40.664-0.22
		c0.263,34.4,0.412,602.223,0,633.807c-13.549,0.283-27.13,0.66-40.648-0.22C499.93,1125.998,499.93,914.881,499.804,703.749z"/>
	<path fill="#6580A4" stroke="#6580A4" stroke-width="0.5" d="M560.761,703.576c6.115-0.519,12.261-0.503,18.359,0.157
		c-0.11,211.133-0.126,422.265,0.016,633.398c-6.115,0.66-12.261,0.66-18.375,0.189
		C560.698,1126.061,560.698,914.819,560.761,703.576z"/>
	<path fill="#6580A4" stroke="#6580A4" stroke-width="0.5" d="M1137.541,703.544c6.115-0.503,12.276-0.519,18.375,0.33
		c-0.173,211.023-0.173,422.061,0.016,633.1c-6.099,0.865-12.276,0.833-18.391,0.346
		C1137.353,1261.438,1137.359,758.305,1137.541,703.544z"/>
	<path fill="#6580A4" stroke="#6580A4" stroke-width="0.5" d="M1175.627,703.654c13.518-0.676,27.099-0.487,40.648-0.11
		c0.45,118.794,0.237,602.571,0,633.791c-13.534,0.33-27.115,0.55-40.648-0.126C1175.737,1126.03,1175.752,914.834,1175.627,703.654
		z"/>
	<path fill="#6580A4" stroke="#6580A4" stroke-width="0.5" d="M1236.631,703.56c6.099-0.503,12.26-0.503,18.359,0.236
		c-0.11,211.086-0.11,422.187,0,633.288c-6.099,0.723-12.261,0.723-18.359,0.236
		C1236.521,1126.077,1236.521,914.803,1236.631,703.56z"/>
	<path fill="#6580A4" stroke="#6580A4" stroke-width="0.5" d="M1383.993,703.56c5.879-0.44,11.789-0.456,17.683-0.031
		c0.156,113.533,0.208,622.102,0,633.807c-5.895,0.409-11.805,0.393-17.683-0.031
		C1383.795,1312.156,1383.422,724.472,1383.993,703.56z"/>
	<path fill="#6580A4" stroke="#6580A4" stroke-width="0.5" d="M1422.079,703.529c13.518-0.377,27.068-0.519,40.57,0.094
		c-0.11,211.196-0.079,422.407-0.016,633.603c-13.502,0.629-27.052,0.472-40.554,0.094
		C1421.969,1126.061,1421.953,914.787,1422.079,703.529z"/>
	<path fill="#6580A4" stroke="#6580A4" stroke-width="0.5" d="M1483.115,703.544c5.879-0.44,11.773-0.44,17.668,0
		c0.27,98.962,0.407,613.392,0,633.775c-5.894,0.424-11.805,0.424-17.683,0C1482.828,1304.385,1482.58,732.161,1483.115,703.544z"/>
	<path fill="#1C365B" stroke="#1C365B" stroke-width="0.5" d="M656.33,735.359c131.109-0.016,262.218-0.031,393.343,0
		c0.503,8.268,0.472,16.552,0.047,24.82c-14.362,0.239-384.208,0.223-393.453,0.016C655.796,751.911,655.78,743.627,656.33,735.359z
		"/>
	<path fill="#6580A4" stroke="#6580A4" stroke-width="0.5" d="M664.661,760.383c125.529-0.126,251.074-0.016,376.603-0.047
		c-0.676,7.812-0.644,15.671-0.927,23.515c-4.653,0.189-9.29,0.424-13.927,0.597c-0.204,198.809-0.047,397.634-0.094,596.459
		c17.152,0.46,236.053,0.318,271.367-0.063c0.094-0.739,0.267-2.185,0.346-2.908c0.487,0.754,1.462,2.279,1.949,3.049
		c14.037,0.424,28.073,0.189,42.11,0.126c0.786-14.524,0.236-29.079,0.078-43.603l1.305,0.016c-0.88,14.477-0.77,29.032-0.22,43.525
		c1,0,227.374,0.177,230.671,0.362c-0.126,12.355-0.299,24.725,0.094,37.08c-522.088,0.689-1429.129-0.016-1430.129-0.016
		c-0.409-12.402-0.22-24.835-0.11-37.237c0,0,447.851-0.087,478.35-0.173c0.472-14.508,0.566-29.048-0.204-43.556h1.32
		c-0.141,14.524-0.707,29.079,0.094,43.619c18.847,0.031,37.709,0.236,56.556-0.141c0.064-10.728,0.254-462.931-0.11-596.57
		c-4.983-0.157-9.95-0.393-14.917-0.676C664.74,775.944,664.771,768.164,664.661,760.383 M704.146,793.471
		c0.11,195.823,0.141,391.661,0,587.484c31.436,0.462,276.951,0.271,296.721,0.189c0.4-30.805,0.256-507.764,0.016-587.846
		C988.966,793.186,756.371,793.004,704.146,793.471z"/>
	<path fill="#74584D" stroke="#74584D" stroke-width="0.5" d="M704.146,793.471c56.563-0.505,290.243-0.234,296.736-0.173
		c0.305,101.725,0.314,562.455-0.016,587.846c-21.289,0.089-265.05,0.277-296.721-0.189
		C704.288,1185.132,704.256,989.293,704.146,793.471 M730.554,826.244c-0.141,43.525-0.126,87.066-0.016,130.59
		c10.836,0.431,96.017,0.412,106.808,0.031c0.251-43.556,0.283-87.113,0-130.669C824.497,825.821,739.161,825.837,730.554,826.244
		 M860.987,826.213c-0.126,43.541-0.141,87.081,0,130.622c10.335,0.451,95.663,0.403,106.761,0.016
		c0.126-43.541,0.141-87.097-0.016-130.622C957.131,825.835,871.596,825.828,860.987,826.213 M730.585,982.031
		c-0.189,46.543-0.22,93.086,0.016,139.613c35.556,0.189,71.127,0.126,106.682,0.031c0.393-46.543,0.346-93.117,0.031-139.66
		C801.743,981.858,766.156,981.796,730.585,982.031 M861.034,982.016c-0.189,46.543-0.236,93.101,0.016,139.629
		c35.54,0.157,71.095,0.157,106.635,0.016c0.252-46.543,0.22-93.101,0.016-139.644C932.145,981.827,896.574,981.827,861.034,982.016
		 M730.554,1135.885c-0.031,73.768-0.346,147.567,0.157,221.318c35.493,0.031,70.985-0.047,106.478,0.047
		c0.47-18.246,0.373-195.603,0.157-221.397C801.759,1135.461,766.141,1135.398,730.554,1135.885 M860.987,1135.885
		c-0.031,73.768-0.346,147.567,0.157,221.334c35.477,0.016,70.97-0.063,106.447,0.031c0.48-9.781,0.19-208.437,0.142-221.365
		C955.659,1135.485,870.46,1135.486,860.987,1135.885z"/>
	<path fill="#593929" stroke="#593929" stroke-width="0.5" d="M730.554,826.244c8.605-0.407,93.957-0.423,106.792-0.047
		c0.283,43.556,0.251,87.113,0,130.669c-10.801,0.381-95.978,0.399-106.808-0.031C730.428,913.31,730.412,869.769,730.554,826.244
		 M738.57,834.198c-0.314,38.212-0.299,76.44,0,114.652c9.515,0.597,81.905,0.487,90.759,0.031
		c0.474-7.102,0.58-96.43,0.031-114.715C820.091,833.629,748.081,833.669,738.57,834.198z"/>
	<path fill="#593929" stroke="#593929" stroke-width="0.5" d="M860.987,826.213c10.6-0.384,96.139-0.378,106.745,0.016
		c0.157,43.525,0.141,87.081,0.016,130.622c-11.094,0.387-96.393,0.437-106.761-0.016
		C860.845,913.294,860.861,869.753,860.987,826.213 M869.019,834.198c-0.44,38.212-0.409,76.471-0.016,114.683
		c8.271,0.5,80.944,0.486,90.728,0.016c0.388-14.972,0.352-106.421,0-114.715C950.2,833.607,878.316,833.69,869.019,834.198z"/>
	<path fill="#6B4B3C" stroke="#6B4B3C" stroke-width="0.5" d="M738.57,834.198c9.503-0.528,81.518-0.569,90.791-0.031
		c0.468,15.602,0.492,106.863-0.031,114.715c-8.854,0.456-81.227,0.566-90.759-0.031C738.271,910.637,738.256,872.41,738.57,834.198
		z"/>
	<path fill="#6B4B3C" stroke="#6B4B3C" stroke-width="0.5" d="M869.019,834.198c9.327-0.509,81.17-0.591,90.712-0.016
		c0.365,8.59,0.379,100.079,0,114.715c-9.798,0.471-82.433,0.486-90.728-0.016C868.61,910.669,868.579,872.41,869.019,834.198z"/>
	<path fill="#593929" stroke="#593929" stroke-width="0.5" d="M730.585,982.031c35.571-0.236,71.158-0.173,106.73-0.016
		c0.314,46.543,0.362,93.117-0.031,139.66c-35.556,0.094-71.127,0.157-106.682-0.031
		C730.365,1075.117,730.396,1028.574,730.585,982.031 M738.947,990.441c-0.731,4.898-0.672-1.81-0.55,99.923
		c0.079,7.624-0.55,15.294,0.566,22.886c27.555,0.849,55.141-0.016,82.711,0.424c2.531-0.456,7.608,0.833,7.765-3.002
		c0.267-5.433,0.567-101.438-0.204-120.515C799.15,990.221,769.017,989.655,738.947,990.441z"/>
	<path fill="#593929" stroke="#593929" stroke-width="0.5" d="M861.034,982.016c35.54-0.189,71.111-0.189,106.667,0
		c0.204,46.543,0.236,93.101-0.016,139.644c-35.54,0.141-71.095,0.141-106.635-0.016
		C860.798,1075.117,860.845,1028.559,861.034,982.016 M869.412,990.425c-0.896,5.502-0.786,11.082-0.66,16.63
		c0.11,34.062-0.11,68.14,0.079,102.203c-0.833,5.596,5.832,4.071,9.321,4.417c27.052-0.44,54.119,0.424,81.155-0.424
		c1.195-7.058,0.629-14.21,0.676-21.314c0-102.088,0.285-95.667-0.676-101.495C950.086,989.889,878.258,989.973,869.412,990.425z"/>
	<path fill="#6B4B3C" stroke="#6B4B3C" stroke-width="0.5" d="M738.947,990.441c30.07-0.786,60.202-0.22,90.288-0.283
		c0.766,18.936,0.458,115.356,0.204,120.515c-0.157,3.835-5.234,2.546-7.765,3.002c-27.57-0.44-55.157,0.424-82.711-0.424
		c-0.842-5.727-0.566,0.616-0.566-101.479C738.413,1004.651,737.894,997.499,738.947,990.441z"/>
	<path fill="#6B4B3C" stroke="#6B4B3C" stroke-width="0.5" d="M869.412,990.425c8.875-0.453,80.671-0.536,89.895,0.016
		c0.953,5.779,0.676-0.758,0.676,101.495c-0.047,7.105,0.519,14.257-0.676,21.314c-27.036,0.849-54.104-0.016-81.155,0.424
		c-3.49-0.346-10.154,1.179-9.321-4.417c-0.189-34.062,0.031-68.14-0.079-102.203C868.626,1001.507,868.516,995.927,869.412,990.425
		z"/>
	<path fill="#593929" stroke="#593929" stroke-width="0.5" d="M730.554,1135.885c35.587-0.487,71.205-0.424,106.792-0.031
		c0.202,24.19,0.31,203.242-0.157,221.397c-35.493-0.094-70.985-0.016-106.478-0.047
		C730.208,1283.452,730.522,1209.653,730.554,1135.885 M738.554,1148.822c-0.267,64.824-0.283,129.679,0,194.502
		c7.197,0.444,79.451,0.475,90.854,0.031c0.452-9.667,0.462-155.937-0.063-194.534
		C799.087,1148.57,768.813,1148.586,738.554,1148.822z"/>
	<path fill="#593929" stroke="#593929" stroke-width="0.5" d="M860.987,1135.885c9.468-0.399,94.673-0.401,106.745,0
		c0.045,12.087,0.336,211.63-0.142,221.365c-35.477-0.094-70.97-0.016-106.447-0.031
		C860.641,1283.452,860.955,1209.653,860.987,1135.885 M869.019,1148.853c-0.397,15.139-0.321,171.333-0.063,194.502
		c30.243,0.487,60.548,0.487,90.791,0c0.503-11.563,0.331-161.596-0.047-194.502C929.489,1148.555,899.246,1148.57,869.019,1148.853
		z"/>
	<path fill="#6B4B3C" stroke="#6B4B3C" stroke-width="0.5" d="M738.554,1148.822c30.258-0.236,60.532-0.251,90.791,0
		c0.527,38.75,0.51,184.973,0.063,194.534c-11.375,0.442-83.634,0.414-90.854-0.031
		C738.271,1278.501,738.287,1213.646,738.554,1148.822z"/>
	<path fill="#6B4B3C" stroke="#6B4B3C" stroke-width="0.5" d="M869.019,1148.853c30.227-0.283,60.47-0.299,90.681,0
		c0.432,37.541,0.464,184.912,0.047,194.502c-30.243,0.487-60.548,0.487-90.791,0
		C868.741,1324.058,868.605,1164.624,869.019,1148.853z"/>
	<path fill="#1C365B" stroke="#1C365B" stroke-width="0.5" d="M117.322,1418.554c0.001,0,1495.376-0.016,1495.377-0.016
		c0.361,19.224,0.157,38.464,0.094,57.687c-97.636,0.217-1283.818,0.22-1495.644,0.031
		C117.354,1457.017,117.008,1437.778,117.322,1418.554z"/>
	<path fill="#7FA2CA" stroke="#7FA2CA" stroke-width="0.5" d="M80.195,1476.131c26.284,0.335,1547.327,0.435,1568.28-0.063
		c0.817,14.995,0.346,30.07,0.236,45.112c-522.865-0.094-1045.745-0.094-1568.625-0.016
		C80.305,1506.154,80.085,1491.142,80.195,1476.131z"/>
	<path fill="#1C365B" stroke="#1C365B" stroke-width="0.5" d="M44.859,1521.212c23.049-0.123,1626.308-0.171,1645.71,0.047
		c0.016,16.567-0.063,33.151,0.016,49.734c-548.533,0.063-1097.082,0.11-1645.631-0.016
		C44.466,1554.394,44.639,1537.795,44.859,1521.212z"/>
	<path fill="#FFFFFF" stroke="#FFFFFF" stroke-width="0.5" d="M13.155,1570.977c0.001,0,1701.793,0,1701.794,0
		c0.031,13.77,0.063,27.539-0.016,41.324c-567.254,0.063-1134.508,0.063-1701.762,0
		C13.092,1598.516,13.108,1584.747,13.155,1570.977z"/>
</g>
</svg>
