<?xml version="1.0" encoding="UTF-8" ?>
<!DOCTYPE svg PUBLIC "-//W3C//DTD SVG 1.1//EN" "http://www.w3.org/Graphics/SVG/1.1/DTD/svg11.dtd">
<svg width="532pt" height="105pt" viewBox="0 0 1588 315" version="1.1" xmlns="http://www.w3.org/2000/svg">
<g id="#ffffffff">
</g>
<g id="#673398ff">
<path fill="#673398" opacity="1.00" d=" M 153.75 0.00 L 155.04 0.00 L 150.96 0.40 C 176.35 0.54 201.77 6.72 224.04 19.01 C 252.92 34.76 276.41 60.20 289.70 90.31 C 298.39 109.96 302.97 131.48 302.51 152.99 C 302.63 187.89 289.54 222.50 267.02 249.09 C 234.50 253.21 200.82 255.71 168.78 247.19 C 149.77 242.46 132.87 230.20 122.05 213.92 C 111.06 194.47 114.82 167.55 131.48 152.43 C 143.08 141.91 159.82 137.40 175.13 140.82 C 188.68 143.59 200.72 152.42 207.67 164.35 C 214.46 160.78 221.20 157.12 228.00 153.57 C 223.21 145.51 217.30 138.02 209.91 132.19 C 197.48 122.35 181.72 117.01 165.92 116.57 C 150.93 116.39 135.90 120.87 123.57 129.43 C 98.53 146.45 86.14 180.22 94.80 209.31 C 100.33 229.05 114.83 245.27 131.75 256.27 C 145.21 264.92 160.80 269.61 176.43 272.44 C 197.91 276.24 219.84 274.84 241.44 273.00 C 239.27 275.23 236.01 275.10 233.16 275.61 C 210.11 279.03 186.34 279.14 163.56 273.79 C 141.71 268.73 120.90 257.95 105.38 241.58 C 82.57 216.95 77.23 176.92 95.15 148.09 C 104.51 132.74 118.24 119.54 135.31 113.27 C 153.95 106.32 175.18 106.39 193.72 113.64 C 196.77 106.57 200.09 99.62 203.08 92.53 C 172.50 80.03 135.97 83.27 108.20 101.23 C 93.00 111.06 80.49 124.81 71.39 140.42 C 61.25 158.37 57.97 179.79 61.07 200.08 C 65.16 227.44 80.11 253.05 102.03 269.95 C 112.69 278.37 125.29 284.04 138.26 287.87 C 155.02 292.85 172.51 295.02 189.96 295.42 C 192.43 295.46 194.91 295.56 197.37 295.87 C 193.86 297.69 189.79 297.14 185.98 297.25 C 165.25 297.68 144.36 294.46 124.92 287.20 C 110.13 281.63 96.17 273.32 85.20 261.84 C 73.69 250.41 64.01 236.88 58.40 221.58 C 51.81 203.47 49.75 183.56 53.28 164.57 C 57.56 141.98 70.46 121.67 87.35 106.33 C 107.61 87.82 135.04 77.31 162.50 77.76 C 162.51 70.00 162.49 62.23 162.52 54.47 C 138.82 54.48 115.11 60.67 94.62 72.63 C 67.54 88.38 46.26 113.69 34.97 142.87 C 26.68 164.73 23.58 189.09 29.21 212.00 C 35.65 239.98 53.42 264.88 77.22 280.80 C 80.93 283.52 85.17 285.41 88.81 288.24 C 87.13 288.13 85.42 287.93 83.91 287.13 C 76.24 283.46 69.07 278.83 62.26 273.75 C 50.00 264.48 38.44 253.99 29.67 241.28 C 18.70 226.05 10.05 209.00 5.27 190.79 C 0.73 173.95 -0.30 156.33 0.90 138.98 C 3.79 101.78 21.31 66.02 48.76 40.77 C 71.09 20.01 99.81 6.24 130.03 2.03 C 137.88 0.77 145.86 0.89 153.75 0.00 Z" />
<path fill="#673398" opacity="1.00" d=" M 380.02 63.47 C 403.67 63.53 427.33 63.48 450.98 63.50 C 462.98 63.61 475.09 62.87 486.95 65.15 C 497.30 66.99 507.85 70.99 514.94 79.09 C 522.54 87.35 525.00 99.00 524.79 109.94 C 524.80 119.00 522.37 128.40 516.39 135.40 C 512.01 140.72 506.22 144.74 500.07 147.75 C 509.75 150.45 518.97 155.92 524.80 164.26 C 532.95 175.65 534.77 190.44 532.87 204.04 C 531.19 216.64 523.83 228.18 513.49 235.48 C 501.43 243.97 486.53 247.43 471.98 248.02 C 441.31 248.03 410.64 248.05 379.97 248.01 C 379.99 186.50 379.89 124.98 380.02 63.47 M 419.76 95.24 C 419.77 109.47 419.77 123.71 419.76 137.94 C 433.51 138.01 447.25 137.94 461.00 137.98 C 467.65 138.07 474.68 136.30 479.70 131.73 C 484.76 127.01 485.73 119.54 485.07 112.98 C 484.66 107.67 481.83 102.52 477.27 99.67 C 471.59 96.01 464.60 95.31 458.00 95.22 C 445.25 95.25 432.50 95.22 419.76 95.24 M 419.76 166.06 C 419.77 182.78 419.77 199.49 419.77 216.21 C 434.83 216.27 449.89 216.23 464.96 216.23 C 471.57 216.00 478.48 214.86 484.06 211.06 C 489.00 207.70 492.03 201.99 492.54 196.10 C 493.19 189.38 492.49 182.10 488.75 176.31 C 483.72 169.08 474.48 166.34 466.06 166.05 C 450.63 166.02 435.19 166.01 419.76 166.06 Z" />
<path fill="#673398" opacity="1.00" d=" M 689.74 63.51 C 738.41 63.47 787.08 63.52 835.76 63.49 C 835.77 74.92 835.78 86.35 835.75 97.78 C 818.25 97.75 800.75 97.76 783.25 97.77 C 783.23 147.85 783.25 197.93 783.24 248.01 C 769.56 248.05 755.89 248.04 742.21 248.01 C 742.28 197.93 742.18 147.86 742.26 97.78 C 724.75 97.73 707.24 97.80 689.73 97.75 C 689.78 86.34 689.77 74.93 689.74 63.51 Z" />
<path fill="#673398" opacity="1.00" d=" M 555.22 63.52 C 567.56 63.47 579.90 63.51 592.24 63.50 C 592.23 73.67 592.26 83.84 592.22 94.01 C 579.88 94.05 567.54 94.02 555.21 94.03 C 555.25 83.86 555.22 73.69 555.22 63.52 Z" />
<path fill="#673398" opacity="1.00" d=" M 627.97 74.21 C 640.32 74.25 652.68 74.26 665.03 74.21 C 665.06 87.55 664.98 100.89 665.07 114.23 C 673.97 114.24 682.87 114.25 691.77 114.22 C 691.79 122.49 691.73 130.76 691.79 139.03 C 682.87 139.05 673.96 139.04 665.04 139.04 C 665.04 161.70 665.01 184.36 665.05 207.02 C 665.25 211.00 665.70 215.95 669.39 218.32 C 673.20 220.40 677.74 220.53 681.99 220.48 C 687.99 219.94 694.02 219.91 700.04 219.50 C 700.03 229.04 700.05 238.59 700.03 248.13 C 687.42 249.16 674.76 249.48 662.12 249.12 C 652.23 248.46 641.24 246.52 634.48 238.57 C 629.21 232.75 628.05 224.60 627.96 217.05 C 627.96 191.04 627.97 165.04 627.96 139.03 C 620.56 139.04 613.16 139.04 605.76 139.04 C 605.78 130.76 605.71 122.49 605.80 114.21 C 613.17 114.26 620.55 114.23 627.93 114.23 C 628.01 100.89 627.93 87.55 627.97 74.21 Z" />
<path fill="#673398" opacity="1.00" d=" M 1451.97 74.21 C 1464.32 74.25 1476.66 74.26 1489.01 74.21 C 1489.09 87.55 1488.98 100.90 1489.06 114.24 C 1497.96 114.23 1506.86 114.24 1515.77 114.22 C 1515.76 122.48 1515.74 130.74 1515.80 139.00 C 1506.87 139.08 1497.95 139.01 1489.03 139.04 C 1489.03 160.69 1489.05 182.35 1489.02 204.00 C 1488.99 208.68 1488.88 214.09 1492.33 217.73 C 1495.98 220.32 1500.70 220.39 1505.01 220.50 C 1511.34 220.06 1517.68 219.87 1524.03 219.49 C 1524.03 229.02 1524.05 238.54 1524.02 248.07 C 1511.74 249.21 1499.39 249.40 1487.07 249.18 C 1477.70 248.66 1467.62 247.10 1460.34 240.67 C 1454.30 235.23 1451.97 226.93 1451.97 219.02 C 1451.96 192.36 1451.96 165.70 1451.97 139.04 C 1444.56 139.03 1437.15 139.05 1429.74 139.04 C 1429.79 130.76 1429.72 122.49 1429.78 114.22 C 1437.16 114.26 1444.55 114.22 1451.93 114.23 C 1452.01 100.89 1451.93 87.55 1451.97 74.21 Z" />
<path fill="#673398" opacity="1.00" d=" M 858.54 111.72 C 873.02 109.67 888.26 110.46 901.90 116.09 C 915.64 121.48 927.27 132.05 933.82 145.28 C 941.44 160.40 943.07 177.98 940.83 194.59 C 938.51 211.50 930.16 228.02 916.24 238.24 C 901.71 249.10 882.85 252.63 865.06 251.16 C 848.12 250.08 831.17 243.00 819.90 230.07 C 809.73 218.52 804.41 203.28 803.52 188.04 C 802.21 170.13 805.77 151.23 816.53 136.52 C 826.40 122.97 842.07 114.24 858.54 111.72 M 863.44 139.63 C 853.10 142.40 845.48 151.61 842.76 161.71 C 839.66 173.24 839.43 185.52 841.86 197.20 C 843.64 205.59 847.75 213.98 855.01 218.92 C 861.84 223.82 870.78 224.49 878.85 223.28 C 888.07 221.93 896.15 215.46 899.88 206.97 C 904.89 195.98 905.48 183.44 904.18 171.59 C 903.18 162.01 899.94 152.05 892.42 145.61 C 884.73 138.53 873.28 137.30 863.44 139.63 Z" />
<path fill="#673398" opacity="1.00" d=" M 994.05 139.29 C 1001.05 121.98 1019.35 110.01 1038.03 110.74 C 1038.02 122.26 1038.06 133.79 1038.01 145.31 C 1028.93 144.53 1019.17 145.18 1011.36 150.33 C 1003.59 155.00 999.06 163.58 997.25 172.24 C 995.22 181.01 995.86 190.05 995.77 198.97 C 995.78 215.32 995.75 231.66 995.78 248.01 C 983.44 248.05 971.10 248.04 958.76 248.01 C 958.77 203.41 958.77 158.81 958.75 114.21 C 970.51 114.25 982.26 114.26 994.02 114.21 C 994.07 122.57 994.02 130.93 994.05 139.29 Z" />
<path fill="#673398" opacity="1.00" d=" M 1090.13 139.45 C 1097.11 122.14 1115.32 110.11 1134.01 110.71 C 1134.06 122.24 1134.02 133.77 1134.03 145.30 C 1124.50 144.49 1114.12 145.31 1106.21 151.22 C 1097.86 157.02 1093.77 167.14 1092.61 176.94 C 1091.17 189.23 1091.97 201.63 1091.77 213.97 C 1091.77 225.31 1091.75 236.66 1091.78 248.01 C 1079.51 248.05 1067.24 248.04 1054.98 248.01 C 1054.96 203.42 1054.93 158.83 1054.99 114.23 C 1066.67 114.22 1078.34 114.26 1090.02 114.22 C 1090.11 122.63 1089.91 131.04 1090.13 139.45 Z" />
<path fill="#673398" opacity="1.00" d=" M 1166.08 124.15 C 1178.28 114.89 1193.71 110.16 1209.01 110.75 C 1226.83 110.34 1244.68 118.17 1256.10 131.93 C 1269.38 148.01 1274.43 169.81 1272.68 190.31 C 1240.57 190.21 1208.47 190.16 1176.37 190.33 C 1177.10 199.05 1178.60 208.48 1184.82 215.12 C 1191.75 222.42 1202.46 224.29 1212.12 223.70 C 1222.90 222.98 1233.85 216.73 1238.14 206.50 C 1248.94 206.49 1259.74 206.52 1270.54 206.49 C 1267.29 216.81 1262.30 226.81 1254.71 234.64 C 1244.02 245.30 1228.85 250.38 1214.01 251.25 C 1198.22 252.39 1181.74 249.45 1168.30 240.78 C 1156.23 232.97 1147.58 220.53 1143.29 206.91 C 1139.25 194.12 1138.55 180.35 1140.68 167.13 C 1143.49 150.36 1152.26 134.31 1166.08 124.15 M 1183.46 148.45 C 1178.90 153.45 1177.33 160.21 1176.35 166.71 C 1196.19 166.77 1216.04 166.85 1235.88 166.68 C 1233.79 156.79 1229.92 145.48 1219.99 141.01 C 1207.88 136.26 1192.14 138.03 1183.46 148.45 Z" />
<path fill="#673398" opacity="1.00" d=" M 1346.07 115.17 C 1356.58 110.34 1368.52 109.92 1379.81 111.55 C 1389.64 112.97 1399.50 117.26 1405.81 125.17 C 1411.89 132.65 1414.32 142.34 1415.36 151.74 C 1416.43 159.79 1415.92 167.92 1416.04 176.02 C 1416.03 200.02 1416.05 224.01 1416.03 248.01 C 1403.75 248.03 1391.48 248.07 1379.20 247.99 C 1379.24 222.32 1379.25 196.66 1379.21 171.00 C 1378.85 162.50 1378.17 153.24 1372.75 146.27 C 1367.47 139.99 1358.46 139.39 1350.87 140.17 C 1343.16 140.79 1335.54 145.04 1332.15 152.19 C 1327.55 161.74 1327.47 172.64 1327.50 183.02 C 1327.49 204.69 1327.50 226.35 1327.49 248.02 C 1315.16 248.04 1302.83 248.04 1290.50 248.02 C 1290.51 203.41 1290.48 158.81 1290.51 114.20 C 1302.25 114.26 1313.99 114.26 1325.74 114.21 C 1325.82 120.59 1325.67 126.98 1325.83 133.36 C 1330.66 125.53 1337.45 118.70 1346.07 115.17 Z" />
<path fill="#673398" opacity="1.00" d=" M 555.24 114.25 C 567.57 114.21 579.89 114.26 592.22 114.23 C 592.27 158.82 592.22 203.42 592.25 248.01 C 579.91 248.05 567.56 248.04 555.22 248.02 C 555.25 203.43 555.20 158.84 555.24 114.25 Z" />
<path fill="#673398" opacity="1.00" d=" M 1522.52 114.76 C 1530.09 114.79 1537.67 114.77 1545.25 114.77 C 1545.23 116.68 1545.22 118.59 1545.24 120.50 C 1542.50 120.51 1539.78 120.51 1537.07 120.47 C 1537.00 126.49 1537.06 132.51 1537.01 138.53 C 1534.90 138.52 1532.82 138.51 1530.75 138.51 C 1530.74 132.50 1530.81 126.49 1530.74 120.49 C 1527.97 120.51 1525.22 120.52 1522.48 120.50 C 1522.47 118.59 1522.49 116.67 1522.52 114.76 Z" />
<path fill="#673398" opacity="1.00" d=" M 1548.49 114.76 C 1551.44 114.76 1554.40 114.77 1557.38 114.75 C 1559.57 119.89 1561.61 125.10 1563.75 130.26 C 1565.95 125.12 1567.96 119.90 1570.18 114.76 C 1573.12 114.77 1576.06 114.77 1579.03 114.75 C 1579.05 122.67 1579.02 130.59 1579.03 138.51 C 1577.00 138.50 1574.97 138.50 1572.98 138.50 C 1572.95 133.77 1572.94 129.04 1572.98 124.31 C 1570.97 128.99 1569.06 133.71 1567.17 138.43 C 1564.93 138.51 1562.69 138.53 1560.48 138.50 C 1558.45 133.67 1556.56 128.78 1554.43 123.99 C 1554.51 128.82 1554.53 133.66 1554.47 138.49 C 1552.46 138.50 1550.48 138.52 1548.51 138.53 C 1548.48 130.61 1548.51 122.68 1548.49 114.76 Z" />
</g>
</svg>
