<?xml version="1.0" encoding="UTF-8" standalone="no"?>
<!-- Created with Inkscape (http://www.inkscape.org/) -->

<svg
   xmlns:dc="http://purl.org/dc/elements/1.1/"
   xmlns:cc="http://creativecommons.org/ns#"
   xmlns:rdf="http://www.w3.org/1999/02/22-rdf-syntax-ns#"
   xmlns:svg="http://www.w3.org/2000/svg"
   xmlns="http://www.w3.org/2000/svg"
   xmlns:sodipodi="http://sodipodi.sourceforge.net/DTD/sodipodi-0.dtd"
   xmlns:inkscape="http://www.inkscape.org/namespaces/inkscape"
   width="70mm"
   height="70mm"
   viewBox="0 0 248.03149 248.03149"
   id="svg4526"
   version="1.1"
   inkscape:version="0.91 r13725"
   sodipodi:docname="user spy.svg">
  <defs
     id="defs4528" />
  <sodipodi:namedview
     id="base"
     pagecolor="#ffffff"
     bordercolor="#666666"
     borderopacity="1.0"
     inkscape:pageopacity="0.0"
     inkscape:pageshadow="2"
     inkscape:zoom="0.49497475"
     inkscape:cx="-682.26615"
     inkscape:cy="278.29593"
     inkscape:document-units="px"
     inkscape:current-layer="layer1"
     showgrid="false"
     inkscape:window-width="1920"
     inkscape:window-height="1017"
     inkscape:window-x="1358"
     inkscape:window-y="-8"
     inkscape:window-maximized="1" />
  <metadata
     id="metadata4531">
    <rdf:RDF>
      <cc:Work
         rdf:about="">
        <dc:format>image/svg+xml</dc:format>
        <dc:type
           rdf:resource="http://purl.org/dc/dcmitype/StillImage" />
        <dc:title></dc:title>
      </cc:Work>
    </rdf:RDF>
  </metadata>
  <g
     inkscape:label="Laag 1"
     inkscape:groupmode="layer"
     id="layer1"
     transform="translate(0,-804.33071)">
    <path
       style="opacity:1;fill:#030904;fill-opacity:1;fill-rule:nonzero;stroke:#000000;stroke-width:0.50507629;stroke-opacity:1"
       d="m 76.42344,1042.717 c -2.2224,-0.2267 -4.7225,-0.6821 -5.5559,-1.012 -0.8334,-0.3299 -9.3384,-2.8569 -18.9001,-5.6157 -9.5617,-2.7588 -17.4523,-5.0834 -17.5347,-5.1657 -0.2391,-0.2392 2.2788,-42.51159 2.8639,-48.08136 2.2676,-21.58406 6.0483,-32.16101 14.8649,-41.58634 7.5909,-8.11487 14.9224,-11.77177 27.5448,-13.73911 5.5107,-0.85889 39.4433,-1.23111 47.6206,-0.52237 13.0001,1.12673 21.3056,3.10399 29.1231,6.93322 3.9457,1.93271 5.526,3.0883 9.1422,6.68524 9.4197,9.36932 13.7657,22.358 15.8544,47.38281 1.1656,13.96551 2.4884,42.59711 1.9903,43.07931 -0.9176,0.8884 -17.7367,5.5971 -23.3654,6.5414 -20.4406,3.4292 -70.2575,6.467 -83.6481,5.1006 z"
       id="path4293-4"
       inkscape:connector-curvature="0" />
    <g
       id="g3778"
       transform="translate(7.4403592,0)">
      <ellipse
         ry="38.327599"
         rx="40.658642"
         cy="883.10352"
         cx="101.54045"
         id="path4295-9"
         style="opacity:1;fill:#000700;fill-opacity:1;fill-rule:nonzero;stroke:#000000;stroke-opacity:1" />
      <path
         inkscape:connector-curvature="0"
         style="fill:#333333;stroke:#333333;stroke-width:1.59399235"
         d="m 130.73533,872.51459 c -0.9566,-0.15105 -2.03668,-0.13405 -3.25283,0.0977 -8.99572,1.71324 -29.227838,2.15908 -42.286852,0.92757 -8.050764,-0.75923 -15.27019,-0.81869 -16.010046,-0.14638 -1.698308,1.54319 1.927225,13.98829 5.133383,17.62372 5.614387,6.3659 21.426346,1.41674 23.735532,-7.42052 1.279165,-4.89559 5.164193,-5.13535 6.404013,-0.39055 0.50957,1.95034 2.46168,5.11381 4.32017,7.02997 6.44972,6.64977 22.25802,3.1658 22.97314,-5.0772 0.25274,-2.91307 0.53177,-3.93423 2.1855,-7.56697 1.17761,-2.58669 -0.33218,-4.62404 -3.20201,-5.0772 z m -0.35577,1.5134 c 0.2948,-0.1249 0.72172,-0.0703 1.16899,0.19527 0.89452,0.53103 1.62641,1.28096 1.62641,1.65986 0,0.3789 -0.73189,0.68347 -1.62641,0.68347 -0.89453,0 -1.62642,-0.74993 -1.62642,-1.65986 0,-0.45496 0.16265,-0.75387 0.45743,-0.87874 z m -2.94787,7.95752 c 0.27289,0.10947 0.28495,0.38715 0,0.82992 -0.5465,0.84938 -1.64879,1.56222 -2.49046,1.56222 -2.33944,0 -1.85209,-1.1095 0.96568,-2.14804 0.72368,-0.26676 1.25187,-0.35358 1.52478,-0.2441 z m -16.92492,5.56539 c 0.0111,-0.11905 0.48467,0.22154 1.3723,0.97638 1.18402,1.00764 3.13816,1.4796 4.371,1.02521 1.23266,-0.45447 2.28714,-0.47843 2.28714,-0.0488 0,2.2426 -4.96781,2.13597 -6.7598,-0.1464 -0.85477,-1.08896 -1.28235,-1.68725 -1.27064,-1.8063 z"
         id="path3687" />
      <path
         inkscape:connector-curvature="0"
         style="fill:#333333;stroke:#333333;stroke-width:1.59399235"
         d="m 82.862454,817.98357 c -1.465468,0.0262 -2.815166,0.42883 -4.421823,1.17166 -4.742144,2.19245 -6.992053,7.33091 -10.825845,24.84896 l -2.642926,11.96071 -8.132086,1.07401 c -8.213577,1.08505 -11.618398,4.12063 -8.284569,7.32288 0.936171,0.89914 7.4246,2.17626 14.434456,2.88034 13.225544,1.32838 77.116579,0.57421 86.200129,-1.02521 5.41857,-0.95409 8.52665,-5.00845 5.28584,-6.93233 -1.03927,-0.61699 -5.39774,-1.55653 -9.65684,-2.09922 -6.82396,-0.8695 -7.84307,-1.514 -8.5387,-5.27247 -2.76214,-14.92591 -6.5251,-27.95859 -8.79281,-30.36553 -2.32561,-2.46839 -4.50558,-2.68406 -18.44968,-1.80631 -10.24642,0.645 -17.712484,0.41651 -21.14342,-0.73229 -2.0257,-0.6783 -3.566259,-1.05124 -5.031726,-1.0252 z"
         id="path3689" />
    </g>
    <path
       style="color:#000000;display:inline;overflow:visible;visibility:visible;fill:#e6e6e6;stroke:#e6e6e6;stroke-width:2.09475136px;stroke-linecap:butt;stroke-linejoin:miter;stroke-miterlimit:4;stroke-dasharray:none;stroke-dashoffset:0;stroke-opacity:1;marker:none;enable-background:accumulate"
       d="m 97.347665,926.25297 6.937745,8.47742 -10.902154,82.89031 13.875464,12.2451 14.86658,-12.7161 -7.92883,-81.94835 8.91994,-8.47742 z"
       id="path3693"
       inkscape:connector-curvature="0" />
  </g>
</svg>
