<svg height="512" viewBox="0 0 36 60" width="512" xmlns="http://www.w3.org/2000/svg"><g id="Page-1" fill="none" fill-rule="evenodd"><g id="003---Graphics-Card" fill-rule="nonzero"><path id="Shape" d="m21 1v4h-2-8v-4z" fill="#9e9e9e"/><path id="Shape" d="m18 1v4h1 2v-4z" fill="#707070"/><path id="Shape" d="m25 31h-12s5.57-25.06 6-26c0 1 6 26 6 26z" fill="#607d8b"/><path id="Shape" d="m13 5v26l-7 6v-32z" fill="#7f8e94"/><path id="Shape" d="m32 5v32l-7-6v-26z" fill="#7f8e94"/><path id="Shape" d="m29 5v29.43l3 2.57v-32z" fill="#545c60"/><path id="Shape" d="m25 31h-12l-7 6v12l6.72 5.76c.1811418.1549056.4116555.2400183.65.24h11.26c.2383445.0000183.4688582-.0850944.65-.24l6.72-5.76v-12z" fill="#607d8b"/><path id="Shape" d="m25 31h-3l7 6v12l-6.72 5.76c-.1811418.1549056-.4116555.2400183-.65.24h3c.2383445.0000183.4688582-.0850944.65-.24l6.72-5.76v-12z" fill="#37474f"/><path id="Shape" d="m24.66 48.66c-2.6971168 2.7001167-6.9259399 3.1191158-10.1004781 1.0007729-3.1745381-2.1183429-4.4107231-6.1840964-2.9526085-9.7109889 1.4581146-3.5268926 5.2044624-5.5327297 8.9480935-4.7909107s6.4419921 4.0247069 6.4449931 7.8411267c.0016689 2.1223704-.8400914 4.1584232-2.34 5.66z" fill="#37474f"/><path id="Shape" d="m32.0000013 49-.0000013 4.53c.000483.2974322-.1314599.5796435-.36.77l-5.36 4.47c-.1799121.1490812-.4063478.2304565-.64.23h-13.28c-.2336522.0004565-.4600879-.0809188-.64-.23l-5.36-4.47c-.2285401-.1903565-.36048303-.4725678-.36-.77l-.00000132-4.53 6.72000132 5.76c.1811418.1549056.4116555.2400183.65.24h11.26c.2383445.0000183.4688582-.0850944.65-.24z" fill="#7f8e94"/><path id="Shape" d="m29 51.57v2c.000483.2974322-.1314599.5796435-.36.77l-5.36 4.47c-.1799121.1490812-.4063478.2304565-.64.2300019l3-.0000019c.2336522.0004565.4600879-.0809188.64-.23l5.36-4.47c.2285401-.1903565.360483-.4725678.36-.77l.0000013-4.57z" fill="#545c60"/><path id="Shape" d="m22 43c0 1.6568542-1.3431458 3-3 3s-3-1.3431458-3-3 1.3431458-3 3-3 3 1.3431458 3 3z" fill="#f5f5f5"/><path id="Shape" d="m25 5v26s-6-25-6-26z" fill="#37474f"/><path id="Shape" d="m19 5c-.4.94-6 26-6 26v-26z" fill="#37474f"/><path id="Shape" d="m6 11v32h-4c-.55228475 0-1-.4477153-1-1v-5c1.1045695 0 2-.8954305 2-2s-.8954305-2-2-2v-21c0-.5522847.44771525-1 1-1z" fill="#60a917"/><path id="Rectangle-path" d="m3 11h3v32h-3z" fill="#549414"/><g fill="#000"><circle id="Oval" cx="10" cy="9" r="1"/><circle id="Oval" cx="10" cy="28" r="1"/><circle id="Oval" cx="28" cy="9" r="1"/><circle id="Oval" cx="28" cy="28" r="1"/><path id="Shape" d="m12.62 36.66c-3.48289042 3.5091671-3.48289042 9.1708329 0 12.68 3.5091671 3.4828904 9.1708329 3.4828904 12.68 0 3.4828904-3.5091671 3.4828904-9.1708329 0-12.68-3.5091671-3.4828904-9.1708329-3.4828904-12.68 0zm9.64.15c-.5203032.221214-.9798602.564167-1.34 1-.332913.4098568-.5718624.8877555-.7 1.4-.2659857-.0960718-.5405779-.1663942-.82-.21-.3920986-.322683-.6519062-.7782361-.73-1.28.0133619-.6518454.287044-1.2712311.76-1.72.9905612.0636055 1.9557929.3398733 2.83.81zm-6.52 12.38c.5203032-.221214.9798602-.564167 1.34-1 .332913-.4098568.5718624-.8877555.7-1.4.267337.0824909.5419024.139413.82.17.3920986.322683.6519062.7782361.73 1.28-.0026024.6657851-.2771555 1.3015922-.76 1.76-.9905612-.0636055-1.9557929-.3398733-2.83-.81zm5.26-6.19c0 1.1045695-.8954305 2-2 2s-2-.8954305-2-2 .8954305-2 2-2 2 .8954305 2 2zm-5.54 1.82c.128413.2487889.2825914.4834082.46.7.048449.5051362-.0903402 1.0104712-.39 1.42-.4738072.4577258-1.1114098.7062827-1.77.69-.6577402-.7458388-1.1517104-1.6213583-1.45-2.57.416036.1708148.8603271.2623863 1.31.27h.38c.5168156-.066712 1.0140545-.2404051 1.46-.51zm5.86 3.18c-.0595488-.5264088-.2299575-1.0342267-.5-1.49.2487889-.128413.4834082-.2825914.7-.46.5051362-.048449 1.0104712.0903402 1.42.39.4577258.4738072.7062827 1.1114098.69 1.77-.7375371.6564202-1.607004 1.1474133-2.55 1.44.2069428-.5239276.2891102-1.0888283.24-1.65zm2.87-3.11c-.4098568-.332913-.8877555-.5718624-1.4-.7.0942524-.2562812.164553-.5207452.21-.79.322683-.3920986.7782361-.6519062 1.28-.73.6580937.0113817 1.2844269.2849525 1.74.76-.0574123.9890588-.3268355 1.9542077-.79 2.83-.2326031-.5245556-.589575-.9845002-1.04-1.34zm-.19-4.21c-.5264088.0595488-1.0342267.2299575-1.49.5-.128413-.2487889-.2825914-.4834082-.46-.7-.048449-.5051362.0903402-1.0104712.39-1.42.4738072-.4577258 1.1114098-.7062827 1.77-.69.6564202.7375371 1.1474133 1.607004 1.44 2.55-.5239276-.2069428-1.0888283-.2891102-1.65-.24zm-7.32-2.68c.0595488.5264088.2299575 1.0342267.5 1.49-.2487889.128413-.4834082.2825914-.7.46-.5051362.048449-1.0104712-.0903402-1.42-.39-.4577258-.4738072-.7062827-1.1114098-.69-1.77.7375371-.6564202 1.607004-1.1474133 2.55-1.44-.2069428.5239276-.2891102 1.0888283-.24 1.65zm-2.87 3.11c.4098568.332913.8877555.5718624 1.4.7-.0824909.267337-.139413.5419024-.17.82-.322683.3920986-.7782361.6519062-1.28.73-.6702794-.0103836-1.3067633-.2960781-1.76-.79.0574123-.9890588.3268355-1.9542077.79-2.83.226916.5224145.576874.9821633 1.02 1.34z"/><path id="Shape" d="m2 44h3v9.53c-.00096606.5948645.26291981 1.159287.72 1.54l5.36 4.47c.3598241.2981623.8126957.460913 1.28.46h13.28c.4673043.000913.9201759-.1618377 1.28-.46l5.36-4.47c.4570802-.380713.7209661-.9451355.72-1.54v-47.53h1c1.1045695 0 2-.8954305 2-2v-3c0-.55228475-.4477153-1-1-1s-1 .44771525-1 1v3h-12v-3c0-.55228475-.4477153-1-1-1h-10c-.5522847 0-1 .44771525-1 1v3h-9c-.55228475 0-1 .44771525-1 1s.44771525 1 1 1h4v4h-3c-1.1045695 0-2 .8954305-2 2v21c0 .5522847.44771525 1 1 1s1 .4477153 1 1-.44771525 1-1 1-1 .4477153-1 1v5c0 1.1045695.8954305 2 2 2zm15.67-38c-.18.69-.39 1.59-.67 2.8-.57 2.44-1.32 5.7-2.06 9-.32 1.38-.64 2.8-.94 4.2v-16zm6.33 0v16.5c-1.64-6.92-3.27-13.91-3.81-16.5zm-.27 24h-9.48c1.51-6.8 3.47-15.52 4.65-20.57 1.25 5.57 3.49 14.96 4.83 20.57zm-10.36 2h11.26l6.37 5.46v11.08l-6.37 5.46h-11.26l-6.37-5.46v-11.08zm12.27 26h-13.28l-5.36-4.47v-2.36l5.07 4.35c.3622837.3098112.823311.4800367 1.3.48h11.26c.476689.0000367.9377163-.1701888 1.3-.48l5.07-4.35v2.36zm5.36-23.17-5-4.29v-24.54h5zm-19-32.83h8v2h-.83-.07c-.1864362-.0520431-.3835638-.0520431-.57 0h-6.53zm-1 4h1v24.54l-5 4.29v-28.83zm-9 31.83c1.20094336-.422469 2.00445995-1.5569152 2.00445995-2.83s-.80351659-2.407531-2.00445995-2.83v-20.17h3v30h-3z"/></g></g></g></svg>