<?xml version="1.0" encoding="iso-8859-1"?>
<!-- Generator: Adobe Illustrator 19.0.0, SVG Export Plug-In . SVG Version: 6.00 Build 0)  -->
<svg version="1.1" id="Layer_1" xmlns="http://www.w3.org/2000/svg" xmlns:xlink="http://www.w3.org/1999/xlink" x="0px" y="0px"
	 viewBox="0 0 304.742 304.742" style="enable-background:new 0 0 304.742 304.742;" xml:space="preserve">
<g>
	<rect x="44.371" y="5" style="fill:#808285;" width="216" height="294.742"/>
	<path style="fill:#FFFFFF;" d="M152.371,67.712c-36.323,0-65.77,29.446-65.77,65.77c0,32.197,23.142,58.972,53.695,64.644
		l28.63-30.206l14.057,11.441l-11.954,17.189c27.232-8.045,47.111-33.228,47.111-63.068
		C218.141,97.158,188.695,67.712,152.371,67.712z"/>
	<circle style="fill:#808285;" cx="152.371" cy="133.481" r="14.167"/>
	<g>
		<path style="fill:#A7A9AC;" d="M132.038,227.6L132.038,227.6c-5.995-4.879-6.573-13.828-1.256-19.438l38.144-40.243l14.057,11.441
			l-31.658,45.522C146.913,231.228,138.034,232.479,132.038,227.6z"/>
		<g>
			<path style="fill:#393654;" d="M260.371,0h-216c-2.762,0-5,2.239-5,5v294.742c0,2.761,2.238,5,5,5h216c2.762,0,5-2.239,5-5V5
				C265.371,2.239,263.133,0,260.371,0z M255.371,294.742h-206V10h206V294.742z"/>
			<circle style="fill:#393654;" cx="77.395" cy="38.024" r="11.015"/>
			<circle style="fill:#393654;" cx="227.347" cy="38.024" r="11.015"/>
			<path style="fill:#393654;" d="M130.8,200.876l-3.646,3.847c-7.312,7.714-6.517,20.045,1.727,26.755
				c8.252,6.716,20.489,4.975,26.549-3.741l18.735-26.94c28.923-9.367,48.975-36.78,48.975-67.316
				c0-39.023-31.747-70.77-70.77-70.77S81.6,94.458,81.6,133.481C81.602,164.581,101.831,191.646,130.8,200.876z M147.222,222.027
				c-2.751,3.955-8.275,4.747-12.027,1.695c-3.753-3.055-4.096-8.626-0.782-12.12l34.954-36.877l6.865,5.587L147.222,222.027z
				 M152.371,72.711c33.509,0,60.77,27.261,60.77,60.77c0,20.715-10.742,39.763-27.499,50.815l1.447-2.081
				c1.493-2.147,1.08-5.082-0.948-6.733l-14.058-11.44c-2.03-1.652-4.986-1.46-6.785,0.439l-26.712,28.182
				c-27.382-6.336-46.984-30.808-46.984-59.181C91.602,99.973,118.862,72.711,152.371,72.711z"/>
			<path style="fill:#393654;" d="M152.371,152.648c10.569,0,19.168-8.599,19.168-19.167c0-10.569-8.599-19.168-19.168-19.168
				s-19.168,8.599-19.168,19.168C133.203,144.05,141.802,152.648,152.371,152.648z M152.371,124.313
				c5.056,0,9.168,4.112,9.168,9.168c0,5.055-4.112,9.167-9.168,9.167s-9.168-4.112-9.168-9.167
				C143.203,128.426,147.315,124.313,152.371,124.313z"/>
			<circle style="fill:#393654;" cx="227.347" cy="266.718" r="11.015"/>
			<circle style="fill:#393654;" cx="77.395" cy="266.718" r="11.015"/>
		</g>
	</g>
</g>
<g>
</g>
<g>
</g>
<g>
</g>
<g>
</g>
<g>
</g>
<g>
</g>
<g>
</g>
<g>
</g>
<g>
</g>
<g>
</g>
<g>
</g>
<g>
</g>
<g>
</g>
<g>
</g>
<g>
</g>
</svg>
