<?xml version="1.0" encoding="iso-8859-1"?>
<!-- Generator: Adobe Illustrator 19.0.0, SVG Export Plug-In . SVG Version: 6.00 Build 0)  -->
<svg version="1.1" id="Layer_1" xmlns="http://www.w3.org/2000/svg" xmlns:xlink="http://www.w3.org/1999/xlink" x="0px" y="0px"
	 viewBox="0 0 508 508" style="enable-background:new 0 0 508 508;" xml:space="preserve">
<g>
	<rect x="194" y="314" style="fill:#AEB1B4;" width="116" height="40"/>
	<path style="fill:#AEB1B4;" d="M40.4,31.2V270H466c0.8,0,1.6,0.4,2,1.2V30.8c0-13.6-11.6-25.2-25.6-25.2H66
		C51.6,6,40.4,17.2,40.4,31.2z M58,248V34v-2c0-1.2,0.8-2,2-2h384c1.2,0,2,0.8,2,2v216c0,1.2-0.8,2-2,2h-2H60h-2V248z"/>
</g>
<path style="fill:#E8E3E3;" d="M466,274H42v9.6C42,298,52,310,65.6,310H442c14,0,23.6-12,23.6-26.4v-10.8C466,273.6,466,274,466,274
	z M254,300c-5.6,0-10-4.4-10-10s4.4-10,10-10c5.6,0,10,4.4,10,10S259.6,300,254,300z"/>
<path style="fill:#CC9999;" d="M58,248v2h2C58.8,250,58,249.2,58,248z"/>
<path style="fill:#CDEEF9;" d="M438,250V30H58v220H438z"/>
<g>
	<rect x="166" y="354" style="fill:#E8E3E3;" width="172" height="12"/>
	<circle style="fill:#E8E3E3;" cx="254" cy="290" r="6"/>
	<path style="fill:#E8E3E3;" d="M312,402h-2H79.6c-3.2,0-6,2.8-6,6v88.4c0,3.2,2.8,6,6,6H312c3.2,0,6-2.8,6-6V410v-2
		C318,404.8,315.2,402,312,402z"/>
</g>
<path style="fill:#F4EFEF;" d="M390.4,402h-2h-2.8c-15.2,0-27.6,12.4-27.6,27.6v44.8c0,15.2,12.4,27.6,27.6,27.6h4.8
	c15.2,0,27.6-12.4,27.6-27.6v-42.8v-2C418,414.4,405.6,402,390.4,402z"/>
<path d="M206.4,58.8c-1.2,0-2-0.4-2.8-1.2l-25.2-25.2c-1.6-1.6-1.6-4,0-5.6s4-1.6,5.6,0L209.2,52c1.6,1.6,1.6,4,0,5.6
	C208.4,58.4,207.6,58.8,206.4,58.8z"/>
<path d="M266.4,118.8c-1.2,0-2-0.4-2.8-1.2l-40-40c-1.6-1.6-1.6-4,0-5.6s4-1.6,5.6,0l40,40c1.6,1.6,1.6,4,0,5.6
	C268.4,118.4,267.6,118.8,266.4,118.8z"/>
<path d="M302.8,198.8c-1.2,0-2-0.4-2.8-1.2L183.6,81.2c-1.6-1.6-1.6-4,0-5.6s4-1.6,5.6,0L305.6,192c1.6,1.6,1.6,4,0,5.6
	C304.8,198.4,303.6,198.8,302.8,198.8z"/>
<path d="M352.8,248.8c-1.2,0-2-0.4-2.8-1.2l-33.2-33.2c-1.6-1.6-1.6-4,0-5.6s4-1.6,5.6,0l33.2,33.2c1.6,1.6,1.6,4,0,5.6
	C354.8,248.4,353.6,248.8,352.8,248.8z"/>
<path d="M442.4,316H66c-17.2,0-31.6-14.8-31.6-32.4V31.2C34.4,14,48.4,0,66,0h376.4C460,0,474,14,474,31.2v252.4
	C474,301.2,459.6,316,442.4,316z M66,8C53.2,8,42.4,18.4,42.4,31.2v252.4c0,13.2,10.8,24.4,23.6,24.4h376.4
	c12.8,0,23.6-11.2,23.6-24.4l0,0V31.2C466,18.4,455.6,8,442.4,8H66z"/>
<path d="M466,276H38c-2.4,0-4-1.6-4-4s1.6-4,4-4h428c2.4,0,4,1.6,4,4S468.4,276,466,276z"/>
<path d="M444,252H60c-2.4,0-4-1.6-4-4V28c0-2.4,1.6-4,4-4h330c2.4,0,4,1.6,4,4s-1.6,4-4,4H64v212h376V32h-10c-2.4,0-4-1.6-4-4
	s1.6-4,4-4h14c2.4,0,4,1.6,4,4v220C448,250.4,446.4,252,444,252z"/>
<path d="M192,354c-2.4,0-4-1.6-4-4v-36c0-2.4,1.6-4,4-4s4,1.6,4,4v36C196,352.4,194.4,354,192,354z"/>
<path d="M312,354c-2.4,0-4-1.6-4-4v-36c0-2.4,1.6-4,4-4s4,1.6,4,4v36C316,352.4,314.4,354,312,354z"/>
<path d="M340,372H164c-2.4,0-4-1.6-4-4v-16c0-2.4,1.6-4,4-4h122c2.4,0,4,1.6,4,4s-1.6,4-4,4H168v8h168v-8h-22c-2.4,0-4-1.6-4-4
	s1.6-4,4-4h26c2.4,0,4,1.6,4,4v16C344,370.4,342.4,372,340,372z"/>
<path d="M254,302c-6.8,0-12-5.2-12-12s5.2-12,12-12c6.8,0,12,5.2,12,12S260.8,302,254,302z M254,286c-2.4,0-4,1.6-4,4s1.6,4,4,4
	c2.4,0,4-1.6,4-4S256.4,286,254,286z"/>
<path d="M312,508H79.6c-6.4,0-12-5.2-12-12v-88.4c0-6.4,5.2-12,12-12H312c6.4,0,12,5.2,12,12V496C324,502.8,318.8,508,312,508z
	 M80,404c-2,0-4,1.6-4,4v88.4c0,2,1.6,4,4,4h232.4c2,0,4-1.6,4-4l0,0V408c0-2-1.6-4-4-4H80z"/>
<path d="M106,488h-8c-2.4,0-4-1.6-4-4s1.6-4,4-4h8c2.4,0,4,1.6,4,4S108.4,488,106,488z"/>
<path d="M130,488h-8c-2.4,0-4-1.6-4-4s1.6-4,4-4h8c2.4,0,4,1.6,4,4S132.4,488,130,488z"/>
<path d="M154,488h-8c-2.4,0-4-1.6-4-4s1.6-4,4-4h8c2.4,0,4,1.6,4,4S156.4,488,154,488z"/>
<path d="M250,488h-8c-2.4,0-4-1.6-4-4s1.6-4,4-4h8c2.4,0,4,1.6,4,4S252.4,488,250,488z"/>
<path d="M274,488h-8c-2.4,0-4-1.6-4-4s1.6-4,4-4h8c2.4,0,4,1.6,4,4S276.4,488,274,488z"/>
<path d="M298,488h-8c-2.4,0-4-1.6-4-4s1.6-4,4-4h8c2.4,0,4,1.6,4,4S300.4,488,298,488z"/>
<path d="M154,472h-8c-2.4,0-4-1.6-4-4s1.6-4,4-4h8c2.4,0,4,1.6,4,4S156.4,472,154,472z"/>
<path d="M178,472h-8c-2.4,0-4-1.6-4-4s1.6-4,4-4h8c2.4,0,4,1.6,4,4S180.4,472,178,472z"/>
<path d="M202,472h-8c-2.4,0-4-1.6-4-4s1.6-4,4-4h8c2.4,0,4,1.6,4,4S204.4,472,202,472z"/>
<path d="M226,472h-8c-2.4,0-4-1.6-4-4s1.6-4,4-4h8c2.4,0,4,1.6,4,4S228.4,472,226,472z"/>
<path d="M250,472h-8c-2.4,0-4-1.6-4-4s1.6-4,4-4h8c2.4,0,4,1.6,4,4S252.4,472,250,472z"/>
<path d="M154,456h-8c-2.4,0-4-1.6-4-4s1.6-4,4-4h8c2.4,0,4,1.6,4,4S156.4,456,154,456z"/>
<path d="M178,456h-8c-2.4,0-4-1.6-4-4s1.6-4,4-4h8c2.4,0,4,1.6,4,4S180.4,456,178,456z"/>
<path d="M202,456h-8c-2.4,0-4-1.6-4-4s1.6-4,4-4h8c2.4,0,4,1.6,4,4S204.4,456,202,456z"/>
<path d="M226,456h-8c-2.4,0-4-1.6-4-4s1.6-4,4-4h8c2.4,0,4,1.6,4,4S228.4,456,226,456z"/>
<path d="M250,456h-8c-2.4,0-4-1.6-4-4s1.6-4,4-4h8c2.4,0,4,1.6,4,4S252.4,456,250,456z"/>
<path d="M106,440h-8c-2.4,0-4-1.6-4-4s1.6-4,4-4h8c2.4,0,4,1.6,4,4S108.4,440,106,440z"/>
<path d="M130,440h-8c-2.4,0-4-1.6-4-4s1.6-4,4-4h8c2.4,0,4,1.6,4,4S132.4,440,130,440z"/>
<path d="M154,440h-8c-2.4,0-4-1.6-4-4s1.6-4,4-4h8c2.4,0,4,1.6,4,4S156.4,440,154,440z"/>
<path d="M178,440h-8c-2.4,0-4-1.6-4-4s1.6-4,4-4h8c2.4,0,4,1.6,4,4S180.4,440,178,440z"/>
<path d="M202,440h-8c-2.4,0-4-1.6-4-4s1.6-4,4-4h8c2.4,0,4,1.6,4,4S204.4,440,202,440z"/>
<path d="M226,440h-8c-2.4,0-4-1.6-4-4s1.6-4,4-4h8c2.4,0,4,1.6,4,4S228.4,440,226,440z"/>
<path d="M250,440h-8c-2.4,0-4-1.6-4-4s1.6-4,4-4h8c2.4,0,4,1.6,4,4S252.4,440,250,440z"/>
<path d="M274,440h-8c-2.4,0-4-1.6-4-4s1.6-4,4-4h8c2.4,0,4,1.6,4,4S276.4,440,274,440z"/>
<path d="M298,440h-8c-2.4,0-4-1.6-4-4s1.6-4,4-4h8c2.4,0,4,1.6,4,4S300.4,440,298,440z"/>
<path d="M106,424h-8c-2.4,0-4-1.6-4-4s1.6-4,4-4h8c2.4,0,4,1.6,4,4S108.4,424,106,424z"/>
<path d="M130,424h-8c-2.4,0-4-1.6-4-4s1.6-4,4-4h8c2.4,0,4,1.6,4,4S132.4,424,130,424z"/>
<path d="M154,424h-8c-2.4,0-4-1.6-4-4s1.6-4,4-4h8c2.4,0,4,1.6,4,4S156.4,424,154,424z"/>
<path d="M178,424h-8c-2.4,0-4-1.6-4-4s1.6-4,4-4h8c2.4,0,4,1.6,4,4S180.4,424,178,424z"/>
<path d="M202,424h-8c-2.4,0-4-1.6-4-4s1.6-4,4-4h8c2.4,0,4,1.6,4,4S204.4,424,202,424z"/>
<path d="M226,424h-8c-2.4,0-4-1.6-4-4s1.6-4,4-4h8c2.4,0,4,1.6,4,4S228.4,424,226,424z"/>
<path d="M250,424h-8c-2.4,0-4-1.6-4-4s1.6-4,4-4h8c2.4,0,4,1.6,4,4S252.4,424,250,424z"/>
<path d="M274,424h-8c-2.4,0-4-1.6-4-4s1.6-4,4-4h8c2.4,0,4,1.6,4,4S276.4,424,274,424z"/>
<path d="M298,424h-8c-2.4,0-4-1.6-4-4s1.6-4,4-4h8c2.4,0,4,1.6,4,4S300.4,424,298,424z"/>
<path d="M130,472H98c-2.4,0-4-1.6-4-4s1.6-4,4-4h32c2.4,0,4,1.6,4,4S132.4,472,130,472z"/>
<path d="M130,456H98c-2.4,0-4-1.6-4-4s1.6-4,4-4h32c2.4,0,4,1.6,4,4S132.4,456,130,456z"/>
<path d="M298,472h-32c-2.4,0-4-1.6-4-4s1.6-4,4-4h32c2.4,0,4,1.6,4,4S300.4,472,298,472z"/>
<path d="M226,488h-56c-2.4,0-4-1.6-4-4s1.6-4,4-4h56c2.4,0,4,1.6,4,4S228.4,488,226,488z"/>
<path d="M298,456h-32c-2.4,0-4-1.6-4-4s1.6-4,4-4h32c2.4,0,4,1.6,4,4S300.4,456,298,456z"/>
<path d="M390.4,508h-4.8c-18.4,0-33.6-15.2-33.6-33.6v-44.8c0-18.4,15.2-33.6,33.6-33.6h4.8c18.4,0,33.6,15.2,33.6,33.6v44.8
	C424,492.8,408.8,508,390.4,508z M385.6,404c-14,0-25.6,11.6-25.6,25.6v44.8c0,14,11.6,25.6,25.6,25.6h4.8c14,0,25.6-11.6,25.6-25.6
	v-44.8c0-14-11.6-25.6-25.6-25.6H385.6z"/>
<path d="M388,434c-2.4,0-4-1.6-4-4v-16c0-2.4,1.6-4,4-4s4,1.6,4,4v16C392,432.4,390.4,434,388,434z"/>
<g>
</g>
<g>
</g>
<g>
</g>
<g>
</g>
<g>
</g>
<g>
</g>
<g>
</g>
<g>
</g>
<g>
</g>
<g>
</g>
<g>
</g>
<g>
</g>
<g>
</g>
<g>
</g>
<g>
</g>
</svg>
