<?xml version="1.0" encoding="iso-8859-1"?>
<!-- Generator: Adobe Illustrator 19.0.0, SVG Export Plug-In . SVG Version: 6.00 Build 0)  -->
<svg version="1.1" id="Layer_1" xmlns="http://www.w3.org/2000/svg" xmlns:xlink="http://www.w3.org/1999/xlink" x="0px" y="0px"
	 viewBox="0 0 299.437 299.437" style="enable-background:new 0 0 299.437 299.437;" xml:space="preserve">
<g>
	<path style="fill:#808285;" d="M271.026,101.479H28.412c-5.523,0-10-4.477-10-10V15c0-5.523,4.477-10,10-10h242.614
		c5.523,0,10,4.477,10,10v76.479C281.026,97.001,276.549,101.479,271.026,101.479z"/>
	<circle style="fill:#FF7876;" cx="66.11" cy="53.239" r="21.667"/>
	<path style="fill:#A7A9AC;" d="M271.026,197.957H28.412c-5.523,0-10-4.477-10-10v-76.478c0-5.523,4.477-10,10-10h242.614
		c5.523,0,10,4.477,10,10v76.478C281.026,193.48,276.549,197.957,271.026,197.957z"/>
	<circle style="fill:#5AC2AD;" cx="66.11" cy="149.718" r="21.667"/>
	<path style="fill:#808285;" d="M271.026,294.435H28.412c-5.523,0-10-4.477-10-10v-76.478c0-5.523,4.477-10,10-10h242.614
		c5.523,0,10,4.477,10,10v76.478C281.026,289.958,276.549,294.435,271.026,294.435z"/>
	<circle style="fill:#5AC2AD;" cx="66.11" cy="246.196" r="21.667"/>
	<g>
		<path style="fill:#393654;" d="M286.026,15c0-8.271-6.728-15-15-15H28.411c-8.271,0-15,6.728-15,15v76.479
			c0,3.844,1.465,7.343,3.851,10c-2.386,2.657-3.851,6.156-3.851,10v76.479c0,3.844,1.465,7.343,3.851,10
			c-2.386,2.657-3.851,6.156-3.851,10v76.479c0,8.271,6.729,15,15,15h242.615c8.272,0,15-6.729,15-15v-76.479
			c0-3.844-1.465-7.343-3.851-10c2.386-2.657,3.851-6.156,3.851-10v-76.479c0-3.844-1.465-7.343-3.851-10
			c2.386-2.657,3.851-6.156,3.851-10V15z M23.411,15c0-2.757,2.243-5,5-5h242.615c2.757,0,5,2.243,5,5v76.479c0,2.757-2.243,5-5,5
			H28.411c-2.757,0-5-2.243-5-5V15z M276.026,111.479v76.479c0,2.757-2.243,5-5,5H28.411c-2.757,0-5-2.243-5-5v-76.479
			c0-2.757,2.243-5,5-5h242.615C273.783,106.479,276.026,108.722,276.026,111.479z M276.026,284.436c0,2.757-2.243,5-5,5H28.411
			c-2.757,0-5-2.243-5-5v-76.479c0-2.757,2.243-5,5-5h242.615c2.757,0,5,2.243,5,5V284.436z"/>
		<path style="fill:#393654;" d="M66.11,79.906c14.704,0,26.667-11.963,26.667-26.667S80.814,26.572,66.11,26.572
			S39.443,38.535,39.443,53.239S51.406,79.906,66.11,79.906z M66.11,36.572c9.19,0,16.667,7.477,16.667,16.667
			S75.301,69.906,66.11,69.906S49.443,62.43,49.443,53.239S56.92,36.572,66.11,36.572z"/>
		<path style="fill:#393654;" d="M135.11,58.239h106c2.762,0,5-2.238,5-5s-2.238-5-5-5h-106c-2.762,0-5,2.238-5,5
			S132.349,58.239,135.11,58.239z"/>
		<path style="fill:#393654;" d="M66.11,176.385c14.704,0,26.667-11.963,26.667-26.667s-11.963-26.667-26.667-26.667
			s-26.667,11.963-26.667,26.667S51.406,176.385,66.11,176.385z M66.11,133.051c9.19,0,16.667,7.477,16.667,16.667
			S75.3,166.385,66.11,166.385s-16.667-7.477-16.667-16.667S56.92,133.051,66.11,133.051z"/>
		<path style="fill:#393654;" d="M135.11,154.718h106c2.762,0,5-2.238,5-5s-2.238-5-5-5h-106c-2.762,0-5,2.238-5,5
			S132.349,154.718,135.11,154.718z"/>
		<path style="fill:#393654;" d="M66.11,219.529c-14.704,0-26.667,11.963-26.667,26.667s11.963,26.667,26.667,26.667
			s26.667-11.963,26.667-26.667C92.777,231.492,80.814,219.529,66.11,219.529z M66.11,262.863c-9.19,0-16.667-7.477-16.667-16.667
			s7.477-16.667,16.667-16.667s16.667,7.477,16.667,16.667S75.301,262.863,66.11,262.863z"/>
		<path style="fill:#393654;" d="M241.11,241.196h-106c-2.762,0-5,2.238-5,5s2.238,5,5,5h106c2.762,0,5-2.238,5-5
			C246.11,243.435,243.872,241.196,241.11,241.196z"/>
	</g>
</g>
<g>
</g>
<g>
</g>
<g>
</g>
<g>
</g>
<g>
</g>
<g>
</g>
<g>
</g>
<g>
</g>
<g>
</g>
<g>
</g>
<g>
</g>
<g>
</g>
<g>
</g>
<g>
</g>
<g>
</g>
</svg>
