<?xml version="1.0" encoding="UTF-8" standalone="no"?>
<svg
   xmlns:dc="http://purl.org/dc/elements/1.1/"
   xmlns:cc="http://creativecommons.org/ns#"
   xmlns:rdf="http://www.w3.org/1999/02/22-rdf-syntax-ns#"
   xmlns:svg="http://www.w3.org/2000/svg"
   xmlns="http://www.w3.org/2000/svg"
   version="1.1"
   id="svg5332"
   viewBox="0 0 256.00007 256.00002"
   height="72.248894mm"
   width="72.248909mm">
  <title
     id="title7069">Key</title>
  <defs
     id="defs5334" />
  <metadata
     id="metadata5337">
    <rdf:RDF>
      <cc:Work
         rdf:about="">
        <dc:format>image/svg+xml</dc:format>
        <dc:type
           rdf:resource="http://purl.org/dc/dcmitype/StillImage" />
        <dc:title>Key</dc:title>
        <cc:license
           rdf:resource="http://creativecommons.org/publicdomain/zero/1.0/" />
        <dc:creator>
          <cc:Agent>
            <dc:title>Josh &quot;Cheeseness&quot; Bush</dc:title>
          </cc:Agent>
        </dc:creator>
        <dc:description>Originally created for the official shirt for the 2014 Open Source Developers' Conference held at Griffith University.</dc:description>
        <dc:subject>
          <rdf:Bag>
            <rdf:li>key</rdf:li>
          </rdf:Bag>
        </dc:subject>
        <dc:date>2014-10-22</dc:date>
        <dc:coverage></dc:coverage>
      </cc:Work>
      <cc:License
         rdf:about="http://creativecommons.org/publicdomain/zero/1.0/">
        <cc:permits
           rdf:resource="http://creativecommons.org/ns#Reproduction" />
        <cc:permits
           rdf:resource="http://creativecommons.org/ns#Distribution" />
        <cc:permits
           rdf:resource="http://creativecommons.org/ns#DerivativeWorks" />
      </cc:License>
    </rdf:RDF>
  </metadata>
  <g
     transform="translate(-362.5464,-406.21469)"
     id="layer1">
    <path
       id="rect4505"
       d="m 419.39144,477.36849 a 56.846476,56.846476 0 0 0 -56.845,56.84482 56.846476,56.846476 0 0 0 56.845,56.8476 56.846476,56.846476 0 0 0 53.5251,-37.8984 l 31.2616,0 5.1749,-7.3312 11.9489,0 3.3252,4.7817 5.9824,-4.8169 8.2873,0.04 6.1495,-4.7413 6.2518,4.7413 5.2528,-6.6825 4.9971,5.7804 6.2142,0.9021 6.4671,4.9969 5.3903,-4.9969 7.7595,-3.2337 11.7336,3.2337 19.4337,-19.3533 -7.0541,-10.5811 -138.3604,0 a 56.846476,56.846476 0 0 0 -53.7405,-38.52757 z m -29.8509,40.38352 a 16.463598,16.463598 0 0 1 16.4615,16.4613 16.463598,16.463598 0 0 1 -16.4615,16.4643 16.463598,16.463598 0 0 1 -16.4641,-16.4643 16.463598,16.463598 0 0 1 16.4641,-16.4613 z"
       style="color:#000000;clip-rule:nonzero;display:inline;overflow:visible;visibility:visible;color-interpolation:sRGB;color-interpolation-filters:linearRGB;fill:#808080;fill-opacity:1;fill-rule:nonzero;stroke:none;stroke-width:3;marker:none;color-rendering:auto;image-rendering:auto;shape-rendering:auto;text-rendering:auto;enable-background:accumulate" />
  </g>
</svg>
